# xmcd
#
# Track frame offsets: 
#        150
#        13107
#        24335
#        37030
#        50057
#        63575
#        76000
#        87027
#        99077
#        110357
#        122055
#        133520
#        145500
#        158507
#        171262
#        182492
#        194337
#        205602
#        218035
#        229217
#        243325
#        256815
#        272867
#        284872
#        297422
#
# Disc length: 4174 seconds
#
# Revision: 1
# Processed by: cddbd v1.5.2PL0 Copyright (c) Steve Scherf et al.
# Submitted via: ExactAudioCopyFreeDBPlugin 1.0
#
DISCID=5e104c19
DTITLE=Various Artist - St. Louis Girls
DYEAR=1993
DGENRE=Blues
TTITLE0=Katherine Baker - Chicago Fire Blues
TTITLE1=Katherine Baker - Don't Think That You Got Your Man All by You
TTITLE1=rself
TTITLE2=Katherine Baker - My Man Left Me Blues
TTITLE3=Katherine Baker - I Helped You, Sick Man, When You Were Sick a
TTITLE3=nd Down
TTITLE4=Katherine Baker - Wild Women Blues
TTITLE5=Katherine Baker - Daddy Sunshine Blues
TTITLE6=Katherine Baker - Mistreated Blues
TTITLE7=Katherine Baker - Money Women Blues
TTITLE8=Lizzie Washington - Ease Away Blues
TTITLE9=Lizzie Washington - Skeleton Key Blues
TTITLE10=Lizzie Washington - East Coast Blues
TTITLE11=Lizzie Washington - My Low Down Brown
TTITLE12=Lizzie Washington - Working Man Blues
TTITLE13=Lizzie Washington - Fall or Summer Blues
TTITLE14=Lizzie Washington - Lord Have Mercy Blues
TTITLE15=Lizzie Washington - Mexico Blues
TTITLE16=Lizzie Washington - Sport Model Mamma Blues
TTITLE17=Lizzie Washington - Brick Flat Blues
TTITLE18=Lizzie Washington - Daddy Threw Me Down Blues
TTITLE19=Lizzie Washington - Whiskey Head Blues
TTITLE20=Lizzie Washington - Every Day Blues
TTITLE21=Elizabeth Washington - Riot Call Blues
TTITLE22=Elizabeth Washington - You Put That Thing on Me
TTITLE23=Johnnie Strauss - Hard Working Woman
TTITLE24=Johnnie Strauss - St. Louis Johnnie Blues
EXTD=YEAR: 1934
EXTT0=
EXTT1=
EXTT2=
EXTT3=
EXTT4=
EXTT5=
EXTT6=
EXTT7=
EXTT8=
EXTT9=
EXTT10=
EXTT11=
EXTT12=
EXTT13=
EXTT14=
EXTT15=
EXTT16=
EXTT17=
EXTT18=
EXTT19=
EXTT20=
EXTT21=
EXTT22=
EXTT23=
EXTT24=
PLAYORDER=
